<svg width="24" height="23" viewBox="0 0 24 23" fill="none" xmlns="http://www.w3.org/2000/svg">
<path d="M15.8701 6.80681C15.1183 6.13788 14.2155 5.66117 13.2391 5.41752C12.2627 5.17386 11.2418 5.17052 10.2638 5.40779C10.4365 5.63884 11.5715 7.18259 12.5947 9.06404C14.8164 8.23123 15.7558 6.96677 15.8701 6.80681V6.80681ZM12.7953 12.507C9.27361 13.7334 8.00662 16.1785 7.8949 16.407C8.95369 17.2322 10.2842 17.7248 11.7289 17.7248C12.5947 17.7248 13.4199 17.5496 14.1689 17.2297C14.075 16.6812 13.7144 14.7719 12.8359 12.4918L12.7953 12.507ZM14.0064 12.2049C14.824 14.4494 15.1566 16.2775 15.2201 16.6584C16.6217 15.7113 17.6195 14.2107 17.8963 12.4715C17.683 12.4054 15.964 11.8926 14.0064 12.2049ZM11.7289 0.0960693C5.44724 0.0960693 0.353882 5.18943 0.353882 11.4711C0.353882 17.7527 5.44724 22.8461 11.7289 22.8461C18.0105 22.8461 23.1039 17.7527 23.1039 11.4711C23.1039 5.18943 18.0105 0.0960693 11.7289 0.0960693ZM11.7289 18.7836C7.69685 18.7836 4.41638 15.5031 4.41638 11.4711C4.41638 7.43904 7.69685 4.15857 11.7289 4.15857C15.7609 4.15857 19.0414 7.43904 19.0414 11.4711C19.0414 15.5031 15.7609 18.7836 11.7289 18.7836ZM13.0771 9.99333C13.2218 10.2904 13.3615 10.5926 13.491 10.8972C13.5367 11.0039 13.5824 11.1105 13.6256 11.2197C15.7025 10.9582 17.7693 11.3771 17.975 11.4203C17.9623 9.94509 17.4342 8.59177 16.5658 7.52791C16.4312 7.70818 15.3851 9.05134 13.0771 9.99333V9.99333ZM11.3886 9.43982C10.3527 7.599 9.23806 6.05271 9.07302 5.82673C7.32615 6.65193 6.01853 8.26169 5.61482 10.199C5.89412 10.2041 8.46873 10.2168 11.3886 9.43982ZM12.1656 11.5345C12.2469 11.5092 12.3281 11.4838 12.4119 11.4609C12.2545 11.1054 12.0844 10.75 11.9066 10.4021C8.78865 11.3365 5.75955 11.2959 5.48787 11.2908C5.48533 11.3543 5.48533 11.4177 5.48533 11.4812C5.48533 13.0859 6.09216 14.551 7.09001 15.658C7.22966 15.4142 8.94353 12.5756 12.1656 11.5345V11.5345Z" fill="black"/>
</svg>
