<svg width="25" height="24" viewBox="0 0 25 24" fill="none" xmlns="http://www.w3.org/2000/svg">
<path fill-rule="evenodd" clip-rule="evenodd" d="M12.9032 0.43811C6.2732 0.43811 0.903198 5.80811 0.903198 12.4381C0.903198 17.7481 4.3382 22.2331 9.1082 23.8231C9.7082 23.9281 9.9332 23.5681 9.9332 23.2531C9.9332 22.9681 9.9182 22.0231 9.9182 21.0181C6.9032 21.5731 6.1232 20.2831 5.8832 19.6081C5.7482 19.2631 5.1632 18.1981 4.6532 17.9131C4.2332 17.6881 3.6332 17.1331 4.6382 17.1181C5.5832 17.1031 6.2582 17.9881 6.4832 18.3481C7.5632 20.1631 9.2882 19.6531 9.9782 19.3381C10.0832 18.5581 10.3982 18.0331 10.7432 17.7331C8.0732 17.4331 5.2832 16.3981 5.2832 11.8081C5.2832 10.5031 5.7482 9.42311 6.5132 8.58311C6.3932 8.28311 5.9732 7.05311 6.6332 5.40311C6.6332 5.40311 7.6382 5.08811 9.9332 6.63311C10.8932 6.36311 11.9132 6.22811 12.9332 6.22811C13.9532 6.22811 14.9732 6.36311 15.9332 6.63311C18.2282 5.07311 19.2332 5.40311 19.2332 5.40311C19.8932 7.05311 19.4732 8.28311 19.3532 8.58311C20.1182 9.42311 20.5832 10.4881 20.5832 11.8081C20.5832 16.4131 17.7782 17.4331 15.1082 17.7331C15.5432 18.1081 15.9182 18.8281 15.9182 19.9531C15.9182 21.5581 15.9032 22.8481 15.9032 23.2531C15.9032 23.5681 16.1282 23.9431 16.7282 23.8231C19.1104 23.0188 21.1804 21.4878 22.6469 19.4455C24.1133 17.4032 24.9025 14.9524 24.9032 12.4381C24.9032 5.80811 19.5332 0.43811 12.9032 0.43811Z" fill='#1F2937'/>
</svg>
