<svg width="25" height="20" viewBox="0 0 21 16" fill="none" xmlns="http://www.w3.org/2000/svg">
<path d="M17.7277 1.25604L16.4477 2.25604L10.9977 6.30604L5.54766 2.21604L4.26766 1.21604C3.96612 0.966588 3.59801 0.811083 3.20895 0.768793C2.81989 0.726503 2.42697 0.799287 2.07887 0.978127C1.73077 1.15697 1.44279 1.434 1.2506 1.77492C1.05842 2.11583 0.970471 2.50564 0.997663 2.89604V14.486C0.997663 14.8467 1.14095 15.1927 1.396 15.4477C1.65105 15.7028 1.99697 15.846 2.35766 15.846H5.54766V8.12604L10.9977 12.216L16.4477 8.12604V15.846H19.6377C19.9984 15.846 20.3443 15.7028 20.5993 15.4477C20.8544 15.1927 20.9977 14.8467 20.9977 14.486V2.89604C21.0164 2.509 20.9224 2.12485 20.7269 1.79027C20.5314 1.45568 20.243 1.18509 19.8966 1.01137C19.5503 0.837657 19.1609 0.768302 18.7758 0.811738C18.3908 0.855173 18.0266 1.00953 17.7277 1.25604V1.25604Z" fill='#1F2937'/>
</svg>
