<svg width="23" height="23" viewBox="0 0 23 23" fill="none" xmlns="http://www.w3.org/2000/svg">
<path fill-rule="evenodd" clip-rule="evenodd" d="M0.170502 2.27611C0.170502 1.78864 0.364148 1.32114 0.70884 0.976451C1.05353 0.631759 1.52103 0.438113 2.0085 0.438113H20.3305C20.5721 0.437718 20.8114 0.484976 21.0346 0.577179C21.2579 0.669383 21.4608 0.804723 21.6318 0.975449C21.8027 1.14618 21.9382 1.34894 22.0307 1.57212C22.1231 1.79531 22.1706 2.03454 22.1705 2.27611V20.5981C22.1708 20.8397 22.1234 21.079 22.0311 21.3023C21.9388 21.5256 21.8033 21.7285 21.6325 21.8994C21.4617 22.0703 21.2589 22.2059 21.0356 22.2983C20.8124 22.3907 20.5731 22.4382 20.3315 22.4381H2.0085C1.76705 22.4381 1.52796 22.3905 1.3049 22.2981C1.08184 22.2057 0.879173 22.0702 0.708486 21.8994C0.537799 21.7286 0.402434 21.5259 0.310124 21.3028C0.217815 21.0797 0.170371 20.8406 0.170502 20.5991V2.27611ZM8.8785 8.82611H11.8575V10.3221C12.2875 9.46211 13.3875 8.68811 15.0405 8.68811C18.2095 8.68811 18.9605 10.4011 18.9605 13.5441V19.3661H15.7535V14.2601C15.7535 12.4701 15.3235 11.4601 14.2315 11.4601C12.7165 11.4601 12.0865 12.5491 12.0865 14.2601V19.3661H8.8785V8.82611ZM3.3785 19.2291H6.5865V8.68811H3.3785V19.2281V19.2291ZM7.0455 5.25011C7.05155 5.52479 7.00267 5.7979 6.90174 6.05343C6.80081 6.30895 6.64985 6.54175 6.45773 6.73814C6.26561 6.93454 6.0362 7.09059 5.78296 7.19712C5.52971 7.30365 5.25774 7.35853 4.983 7.35853C4.70826 7.35853 4.43629 7.30365 4.18305 7.19712C3.9298 7.09059 3.70039 6.93454 3.50827 6.73814C3.31615 6.54175 3.1652 6.30895 3.06426 6.05343C2.96333 5.7979 2.91445 5.52479 2.9205 5.25011C2.93237 4.71097 3.15489 4.1979 3.54039 3.8208C3.92589 3.44369 4.44373 3.23253 4.983 3.23253C5.52228 3.23253 6.04012 3.44369 6.42562 3.8208C6.81112 4.1979 7.03363 4.71097 7.0455 5.25011V5.25011Z" fill='#1F2937'/>
</svg>
